<svg viewBox="0 0 1513 400" xmlns="http://www.w3.org/2000/svg"><g><g><g><g><g><line x1="46.5" y1="376" x2="41.5" y2="376" style="visibility: inherit;" fill="rgb(0, 0, 0)" stroke="rgb(204, 204, 204)" stroke-width="1px"></line><line x1="46.5" y1="350.93333333333334" x2="41.5" y2="350.93333333333334" style="visibility: inherit;" fill="rgb(0, 0, 0)" stroke="rgb(204, 204, 204)" stroke-width="1px"></line><line x1="46.5" y1="325.8666666666667" x2="41.5" y2="325.8666666666667" style="visibility: inherit;" fill="rgb(0, 0, 0)" stroke="rgb(204, 204, 204)" stroke-width="1px"></line><line x1="46.5" y1="300.8" x2="41.5" y2="300.8" style="visibility: inherit;" fill="rgb(0, 0, 0)" stroke="rgb(204, 204, 204)" stroke-width="1px"></line><line x1="46.5" y1="275.73333333333335" x2="41.5" y2="275.73333333333335" style="visibility: inherit;" fill="rgb(0, 0, 0)" stroke="rgb(204, 204, 204)" stroke-width="1px"></line><line x1="46.5" y1="250.66666666666666" x2="41.5" y2="250.66666666666666" style="visibility: inherit;" fill="rgb(0, 0, 0)" stroke="rgb(204, 204, 204)" stroke-width="1px"></line><line x1="46.5" y1="225.6" x2="41.5" y2="225.6" style="visibility: inherit;" fill="rgb(0, 0, 0)" stroke="rgb(204, 204, 204)" stroke-width="1px"></line><line x1="46.5" y1="200.5333333333333" x2="41.5" y2="200.5333333333333" style="visibility: inherit;" fill="rgb(0, 0, 0)" stroke="rgb(204, 204, 204)" stroke-width="1px"></line><line x1="46.5" y1="175.46666666666667" x2="41.5" y2="175.46666666666667" style="visibility: inherit;" fill="rgb(0, 0, 0)" stroke="rgb(204, 204, 204)" stroke-width="1px"></line><line x1="46.5" y1="150.4" x2="41.5" y2="150.4" style="visibility: inherit;" fill="rgb(0, 0, 0)" stroke="rgb(204, 204, 204)" stroke-width="1px"></line><line x1="46.5" y1="125.3333333333333" x2="41.5" y2="125.3333333333333" style="visibility: inherit;" fill="rgb(0, 0, 0)" stroke="rgb(204, 204, 204)" stroke-width="1px"></line><line x1="46.5" y1="100.26666666666665" x2="41.5" y2="100.26666666666665" style="visibility: inherit;" fill="rgb(0, 0, 0)" stroke="rgb(204, 204, 204)" stroke-width="1px"></line><line x1="46.5" y1="75.19999999999999" x2="41.5" y2="75.19999999999999" style="visibility: inherit;" fill="rgb(0, 0, 0)" stroke="rgb(204, 204, 204)" stroke-width="1px"></line><line x1="46.5" y1="50.133333333333326" x2="41.5" y2="50.133333333333326" style="visibility: inherit;" fill="rgb(0, 0, 0)" stroke="rgb(204, 204, 204)" stroke-width="1px"></line><line x1="46.5" y1="25.06666666666662" x2="41.5" y2="25.06666666666662" style="visibility: inherit;" fill="rgb(0, 0, 0)" stroke="rgb(204, 204, 204)" stroke-width="1px"></line><line x1="46.5" y1="0" x2="41.5" y2="0" style="visibility: inherit;" fill="rgb(0, 0, 0)" stroke="rgb(204, 204, 204)" stroke-width="1px"></line></g><g transform="translate(36.5, 0)"><text x="0" y="376" dx="0em" dy="0.3em" style="text-anchor: end; visibility: hidden; font-family: Roboto, sans-serif; font-size: 12px; font-weight: 200;" fill="rgb(255, 255, 255)" stroke="none" stroke-width="1px">0</text><text x="0" y="350.93333333333334" dx="0em" dy="0.3em" style="text-anchor: end; visibility: inherit; font-family: Roboto, sans-serif; font-size: 12px; font-weight: 200;" fill="rgb(255, 255, 255)" stroke="none" stroke-width="1px">0.02</text><text x="0" y="325.8666666666667" dx="0em" dy="0.3em" style="text-anchor: end; visibility: inherit; font-family: Roboto, sans-serif; font-size: 12px; font-weight: 200;" fill="rgb(255, 255, 255)" stroke="none" stroke-width="1px">0.04</text><text x="0" y="300.8" dx="0em" dy="0.3em" style="text-anchor: end; visibility: inherit; font-family: Roboto, sans-serif; font-size: 12px; font-weight: 200;" fill="rgb(255, 255, 255)" stroke="none" stroke-width="1px">0.06</text><text x="0" y="275.73333333333335" dx="0em" dy="0.3em" style="text-anchor: end; visibility: inherit; font-family: Roboto, sans-serif; font-size: 12px; font-weight: 200;" fill="rgb(255, 255, 255)" stroke="none" stroke-width="1px">0.08</text><text x="0" y="250.66666666666666" dx="0em" dy="0.3em" style="text-anchor: end; visibility: inherit; font-family: Roboto, sans-serif; font-size: 12px; font-weight: 200;" fill="rgb(255, 255, 255)" stroke="none" stroke-width="1px">0.1</text><text x="0" y="225.6" dx="0em" dy="0.3em" style="text-anchor: end; visibility: inherit; font-family: Roboto, sans-serif; font-size: 12px; font-weight: 200;" fill="rgb(255, 255, 255)" stroke="none" stroke-width="1px">0.12</text><text x="0" y="200.5333333333333" dx="0em" dy="0.3em" style="text-anchor: end; visibility: inherit; font-family: Roboto, sans-serif; font-size: 12px; font-weight: 200;" fill="rgb(255, 255, 255)" stroke="none" stroke-width="1px">0.14</text><text x="0" y="175.46666666666667" dx="0em" dy="0.3em" style="text-anchor: end; visibility: inherit; font-family: Roboto, sans-serif; font-size: 12px; font-weight: 200;" fill="rgb(255, 255, 255)" stroke="none" stroke-width="1px">0.16</text><text x="0" y="150.4" dx="0em" dy="0.3em" style="text-anchor: end; visibility: inherit; font-family: Roboto, sans-serif; font-size: 12px; font-weight: 200;" fill="rgb(255, 255, 255)" stroke="none" stroke-width="1px">0.18</text><text x="0" y="125.3333333333333" dx="0em" dy="0.3em" style="text-anchor: end; visibility: inherit; font-family: Roboto, sans-serif; font-size: 12px; font-weight: 200;" fill="rgb(255, 255, 255)" stroke="none" stroke-width="1px">0.2</text><text x="0" y="100.26666666666665" dx="0em" dy="0.3em" style="text-anchor: end; visibility: inherit; font-family: Roboto, sans-serif; font-size: 12px; font-weight: 200;" fill="rgb(255, 255, 255)" stroke="none" stroke-width="1px">0.22</text><text x="0" y="75.19999999999999" dx="0em" dy="0.3em" style="text-anchor: end; visibility: inherit; font-family: Roboto, sans-serif; font-size: 12px; font-weight: 200;" fill="rgb(255, 255, 255)" stroke="none" stroke-width="1px">0.24</text><text x="0" y="50.133333333333326" dx="0em" dy="0.3em" style="text-anchor: end; visibility: inherit; font-family: Roboto, sans-serif; font-size: 12px; font-weight: 200;" fill="rgb(255, 255, 255)" stroke="none" stroke-width="1px">0.26</text><text x="0" y="25.06666666666662" dx="0em" dy="0.3em" style="text-anchor: end; visibility: inherit; font-family: Roboto, sans-serif; font-size: 12px; font-weight: 200;" fill="rgb(255, 255, 255)" stroke="none" stroke-width="1px">0.28</text><text x="0" y="0" dx="0em" dy="0.3em" style="text-anchor: end; visibility: hidden; font-family: Roboto, sans-serif; font-size: 12px; font-weight: 200;" fill="rgb(255, 255, 255)" stroke="none" stroke-width="1px">0.3</text></g><line x1="46.5" y1="0" x2="46.5" y2="376" fill="rgb(0, 0, 0)" stroke="rgb(204, 204, 204)" stroke-width="1px"></line></g></g><g transform="translate(46, 0)" clip-path="url(#clip_0)"><clipPath id="clip_0"><rect width="1466" height="376"></rect></clipPath><g><g><g><line x1="0" y1="0" x2="0" y2="376" fill="rgb(0, 0, 0)" stroke="rgb(189, 189, 189)" stroke-width="1px" opacity="0.25"></line><line x1="146.65" y1="0" x2="146.65" y2="376" fill="rgb(0, 0, 0)" stroke="rgb(189, 189, 189)" stroke-width="1px" opacity="0.25"></line><line x1="293.3" y1="0" x2="293.3" y2="376" fill="rgb(0, 0, 0)" stroke="rgb(189, 189, 189)" stroke-width="1px" opacity="0.25"></line><line x1="439.95" y1="0" x2="439.95" y2="376" fill="rgb(0, 0, 0)" stroke="rgb(189, 189, 189)" stroke-width="1px" opacity="0.25"></line><line x1="586.6" y1="0" x2="586.6" y2="376" fill="rgb(0, 0, 0)" stroke="rgb(189, 189, 189)" stroke-width="1px" opacity="0.25"></line><line x1="733.25" y1="0" x2="733.25" y2="376" fill="rgb(0, 0, 0)" stroke="rgb(189, 189, 189)" stroke-width="1px" opacity="0.25"></line><line x1="879.9" y1="0" x2="879.9" y2="376" fill="rgb(0, 0, 0)" stroke="rgb(189, 189, 189)" stroke-width="1px" opacity="0.25"></line><line x1="1026.55" y1="0" x2="1026.55" y2="376" fill="rgb(0, 0, 0)" stroke="rgb(189, 189, 189)" stroke-width="1px" opacity="0.25"></line><line x1="1173.2" y1="0" x2="1173.2" y2="376" fill="rgb(0, 0, 0)" stroke="rgb(189, 189, 189)" stroke-width="1px" opacity="0.25"></line><line x1="1319.8500000000001" y1="0" x2="1319.8500000000001" y2="376" fill="rgb(0, 0, 0)" stroke="rgb(189, 189, 189)" stroke-width="1px" opacity="0.25"></line><line x1="1466.5" y1="0" x2="1466.5" y2="376" fill="rgb(0, 0, 0)" stroke="rgb(189, 189, 189)" stroke-width="1px" opacity="0.25"></line></g><g><line x1="0" y1="376" x2="1466.5" y2="376" fill="rgb(0, 0, 0)" stroke="rgb(189, 189, 189)" stroke-width="1px" opacity="0.25"></line><line x1="0" y1="350.93333333333334" x2="1466.5" y2="350.93333333333334" fill="rgb(0, 0, 0)" stroke="rgb(189, 189, 189)" stroke-width="1px" opacity="0.25"></line><line x1="0" y1="325.8666666666667" x2="1466.5" y2="325.8666666666667" fill="rgb(0, 0, 0)" stroke="rgb(189, 189, 189)" stroke-width="1px" opacity="0.25"></line><line x1="0" y1="300.8" x2="1466.5" y2="300.8" fill="rgb(0, 0, 0)" stroke="rgb(189, 189, 189)" stroke-width="1px" opacity="0.25"></line><line x1="0" y1="275.73333333333335" x2="1466.5" y2="275.73333333333335" fill="rgb(0, 0, 0)" stroke="rgb(189, 189, 189)" stroke-width="1px" opacity="0.25"></line><line x1="0" y1="250.66666666666666" x2="1466.5" y2="250.66666666666666" fill="rgb(0, 0, 0)" stroke="rgb(189, 189, 189)" stroke-width="1px" opacity="0.25"></line><line x1="0" y1="225.6" x2="1466.5" y2="225.6" fill="rgb(0, 0, 0)" stroke="rgb(189, 189, 189)" stroke-width="1px" opacity="0.25"></line><line x1="0" y1="200.5333333333333" x2="1466.5" y2="200.5333333333333" fill="rgb(0, 0, 0)" stroke="rgb(189, 189, 189)" stroke-width="1px" opacity="0.25"></line><line x1="0" y1="175.46666666666667" x2="1466.5" y2="175.46666666666667" fill="rgb(0, 0, 0)" stroke="rgb(189, 189, 189)" stroke-width="1px" opacity="0.25"></line><line x1="0" y1="150.4" x2="1466.5" y2="150.4" fill="rgb(0, 0, 0)" stroke="rgb(189, 189, 189)" stroke-width="1px" opacity="0.25"></line><line x1="0" y1="125.3333333333333" x2="1466.5" y2="125.3333333333333" fill="rgb(0, 0, 0)" stroke="rgb(189, 189, 189)" stroke-width="1px" opacity="0.25"></line><line x1="0" y1="100.26666666666665" x2="1466.5" y2="100.26666666666665" fill="rgb(0, 0, 0)" stroke="rgb(189, 189, 189)" stroke-width="1px" opacity="0.25"></line><line x1="0" y1="75.19999999999999" x2="1466.5" y2="75.19999999999999" fill="rgb(0, 0, 0)" stroke="rgb(189, 189, 189)" stroke-width="1px" opacity="0.25"></line><line x1="0" y1="50.133333333333326" x2="1466.5" y2="50.133333333333326" fill="rgb(0, 0, 0)" stroke="rgb(189, 189, 189)" stroke-width="1px" opacity="0.25"></line><line x1="0" y1="25.06666666666662" x2="1466.5" y2="25.06666666666662" fill="rgb(0, 0, 0)" stroke="rgb(189, 189, 189)" stroke-width="1px" opacity="0.25"></line><line x1="0" y1="0" x2="1466.5" y2="0" fill="rgb(0, 0, 0)" stroke="rgb(189, 189, 189)" stroke-width="1px" opacity="0.25"></line></g></g></g><g><g><line x1="0" y1="376" x2="1466.5" y2="376" fill="rgb(0, 0, 0)" stroke="rgb(153, 153, 153)" stroke-width="1.5px"></line></g></g><g><g><line x1="146.65" y1="0" x2="146.65" y2="376" fill="rgb(0, 0, 0)" stroke="rgb(153, 153, 153)" stroke-width="1.5px"></line></g></g><g><g><g><g><g><path stroke="rgb(255, 112, 67)" stroke-width="2px" d="M180.45282500000002,-10.981348936924293L180.746125,10.486340030338518L181.479375,8.409015345015145L181.919325,0.1708825075375877L184.04575,-50.91458869039699L190.20505000000003,-7.757291774742143L190.3517,10.247135205120998L193.358025,27.829558010337713L193.79797499999998,46.48096190061388L193.87130000000002,25.745694082416847L194.89784999999998,-1.429031879151486L195.557775,29.193008484922487L196.14437500000003,59.14995212131212L199.517325,79.37148099178404L202.6703,59.667177852456874L203.476875,86.89340554358213L203.99015,111.2730988425458L204.43009999999998,98.32275309898723L205.6033,96.1858906568035L209.48952500000001,56.24717860124171L210.14945,29.340206523984165L211.61595000000003,44.57074911361596L215.72215,67.0395107137894L219.901675,86.26177422996027L221.074875,107.91827749555695L221.58815,120.10385753406904L221.88144999999997,137.53624041118934L222.688025,125.78950021283977L224.0812,138.92635241606678L225.181075,140.57720805677107L225.62102499999997,152.43901190143353L227.16085,127.97230028459367L227.96742500000002,147.73119476497484L228.11407499999999,130.8778216752835L229.140625,113.43934457729746L229.6539,118.39548301315169L231.047075,138.35856257776297L231.1204,144.7186062951213L232.0003,166.0063545017038L232.73355,163.71701148960722L232.8802,179.09896751451282L233.4668,181.46719402419836L235.95985,186.69753531087179L236.473125,199.87530954418034L238.4529,182.75887831198966L238.59955000000002,167.86367625631644L238.819525,142.79625269250306L239.112825,141.30452461502625L239.552775,154.1288845738319L239.846075,149.78808284157356L241.82584999999997,165.0289815103309L243.80562500000002,159.28317478872128L245.27212500000002,178.25951751943325L247.471875,189.54588058281925L247.5452,173.52415913614246L250.551525,190.7792171763118L252.164675,198.4111668403713L253.48452500000002,179.4517588494639L253.55785,185.11823851917802L256.19755,192.5030743971103L256.78415,209.28305634068093L257.37075,213.8810611457624L257.590725,216.5311838755116L260.1571,226.97104916022715L260.37707500000005,230.28784759667056L261.403625,213.3682475261742L261.6236,217.59783825841922L261.990225,215.24826970146856L262.870125,217.4603383848966L263.6767,224.51039142571847L265.949775,162.0101236593262L266.536375,163.6836949713622L269.10275,165.87886061704407L270.202625,182.72540492989285L271.44915,192.2317910574569L271.5958,200.68512346279425L271.815775,216.0123616388705L272.10907499999996,227.05240001128848L276.801875,220.80777967382986L276.94852499999996,231.09744984360262L277.82842500000004,242.12680125632062L282.081275,253.873313306769L283.0345,249.13980816210022L283.547775,257.8662366531883L285.894175,261.306994697588L286.11415,268.7678039527124L286.5541,250.07895130015356L286.627425,256.4806612281249L288.6072,266.4461713651435L288.9005,276.575250086363L289.267125,260.4776259941885L290.367,266.4894723128865L290.44032500000003,259.0134861502104L291.760175,265.88807488940205L298.43275,262.9757385427123L299.092675,248.24067942543047L299.825925,255.12464606610638L300.6325,251.95222367652184L302.025675,262.8882509474389L307.52505,257.2750657619685L308.624925,232.6737189637428L310.824675,242.86562159295352L311.1913,248.07258501700068L316.690675,250.05589059902542L319.623675,259.12007066950474L322.19005,249.57429147121056L325.2697,227.22739380078008L325.636325,230.45071607939968L326.58955000000003,213.07969040308697L327.17615,226.16816773461565L327.396125,226.97068281303248L328.862625,228.42808628883893L330.182475,229.96630850436827L331.209025,242.29942948735564L331.355675,251.49070750011268L332.16225000000003,254.516575302643L335.608525,264.75140302348603L335.68185,270.82365568924575L337.221675,259.7906522112174L339.274775,262.6317685912087L339.861375,266.64035677758733L340.447975,276.11946871261597L342.72105,247.5693010764444L343.234325,248.59837823111232L343.4543,257.2922815254543L344.114225,259.17976604908563L345.2141,262.7990061000936L345.874025,242.0137863786054L347.12055,230.61205433351492L347.487175,219.52710454209762L347.5605,207.47227002668484L348.513725,218.1599200112591L348.58705,230.25719479707436L348.660375,241.2112442219756L349.393625,230.84129447119633L349.6136,230.83400742736728L350.860125,240.56358898823152L352.8399,253.72413896919994L354.45305,260.9742155424368L355.1863,269.58382869589326L356.432825,252.98155553660033L356.50615,262.7595455902298L360.83232499999997,269.4038563573499L363.1054,258.39768993953805L363.325375,260.20734103584795L363.83865,258.0127157288399L364.64522500000004,262.3285822821404L369.11805,261.01840042824335L370.071275,228.4116243630043L372.71097499999996,228.83282732512504L372.7843,241.3836880705811L374.17747499999996,223.9593443654904L374.25079999999997,234.37849177874563L374.324125,212.6222017277373L375.350675,228.35274090599847L375.42400000000004,228.0101481352138L375.497325,229.19457093161444L376.0106,230.9181899988478L377.257125,241.87622044187293L379.310225,250.29706769244544L380.7034,258.71850664778407L381.216675,246.85535774770736L382.53652500000004,258.22340452905985L382.7565,263.8985048722269L384.296325,267.76089976056574L386.05612499999995,260.10030102628167L386.27610000000004,267.87083868984973L389.06244999999996,252.86145747761643L391.5555,255.59769956962575L392.72869999999995,253.95025953998086L394.04855,253.93425447160257L394.855125,240.19098497682936L396.2483,252.51641417838516L397.27484999999996,259.1515205857206L400.42782500000004,267.7679479802699L402.040975,238.8290917381531L402.1143,250.75226914296246L402.62757500000004,262.3329028646251L402.774225,270.1802958168841L403.2875,279.8107420982994L405.19395,288.2695807264485L408.12694999999997,294.0825539618L408.34692499999994,293.2054071594575L408.86019999999996,272.09954041340666L409.7401,280.30287138092064L410.62000000000006,276.1173392920161L411.57322500000004,283.45619551790963L411.64655,281.99035585718985L411.7932,284.1620656384184L414.57955,283.8349907040252L414.79952499999996,233.3072495986946L414.946175,212.66752074434993L415.09282500000006,185.79597330824737L415.31280000000004,179.64494709809344L415.60609999999997,196.69252036842477L415.82607500000006,185.35606690759823L417.21925,156.65278569048698L418.8324,139.67715155309497L419.199025,159.05048403884936L422.425325,167.3843614457829L423.96515000000005,180.31581136993609L428.8046,198.37302999148494L428.95124999999996,202.4880462329654L430.344425,199.0591517146942L432.76415,208.5631276480331L433.42407499999996,218.23819871165279L433.717375,204.7422637290098L434.15732499999996,204.7109414469899L435.03722500000003,216.29898273541707L435.2572,192.48478349862853L437.45695,206.3478246504577L438.11687500000005,221.5267876056738L438.55682499999995,220.4483592411938L440.82989999999995,229.23228003296782L440.97655000000003,228.90925271850872L441.63647499999996,242.06310443374173L442.44305,233.40649061064465L442.883,244.2487795899083L443.396275,235.86348787293525L446.1093,248.80769402945273L447.942425,255.67762297043492L448.382375,246.04871538363383L448.822325,241.19126782788226L449.04230000000007,233.611952274788L450.65545000000003,227.97345781799729L453.22182499999997,240.89597667635047L454.0284,251.41507333461158L456.594775,261.95113471101155L458.207925,266.6844458823982L458.794525,271.90020169427675L463.26735,279.87068382054787L464.0006,288.9152622921845L464.44055,274.49007753462934L468.913375,256.570479245357L472.432975,244.86811988575187L473.23955,247.38701994539045L474.11945,257.11008839199L478.44562499999995,249.29810906201473L479.178875,253.04657365754252L479.47217500000005,248.81804550575595L481.3053,254.89261955021624L481.59860000000003,240.36434597371598L482.03855,241.94424134034668L484.60492500000004,253.08612741018422L484.8249,263.0378389694964L487.53792500000003,271.29881685622735L488.271175,268.7897858091528L490.25095,273.0770185909179L490.54425000000003,273.9869242061533L490.6909,268.90569279535777L491.13084999999995,263.88726827054916L491.790775,270.8213116973121L493.47725,280.2369972799756L493.990525,286.5310309699266L495.60367499999995,294.63902092541105L496.55690000000004,298.2983683398205L496.8502,301.3803743149594L496.923525,299.94492215943137L499.123275,304.76210360058775L500.80975000000007,309.3768475253958L500.95640000000003,313.50978646473305L501.176375,316.0846531641146L501.24969999999996,319.43766548102053L501.8363,320.811858684604L504.62265,319.7817412174802L505.575875,312.8787835043027L506.67574999999994,311.88573395224597L508.068925,309.2853779307103L508.8755,313.6923654774812L509.535425,283.9645531247044L511.8085,288.0340192599085L512.615075,289.9346231574504L514.9614750000001,291.18601700655813L516.721275,292.4694431771137L518.11445,299.0547415777413L519.067675,302.4327076284023L519.141,306.4596617308397L519.7275999999999,304.7494792976404L519.87425,311.73205298379884L522.9539,317.7125495332106L523.2472,319.3824326944214L523.5405,317.196143042711L524.347075,301.754782746733L524.56705,306.30990321581635L524.6403750000001,292.783321969018L526.986775,294.74781245497365L527.79335,285.8009004499192L527.9399999999999,294.08602651458057L528.306625,301.4257387712694L529.25985,307.0094342768776L529.773125,305.163589072876L530.72635,309.38179968634006L531.8262249999999,300.7574015314865L532.48615,306.82971778710083L532.706125,268.68021021762945L534.905875,274.71196582944697L536.665675,280.61349906055483L536.8856499999999,270.6111415165218L537.0323000000001,270.75276689765815L537.3256,278.92562436992097L537.7655500000001,279.97977213800704L539.8186499999999,275.69470308886645L540.40525,282.3102121204139L542.091725,269.14563353310035L542.824975,279.67259903846934L545.904625,285.7719013560701L546.5645499999999,294.74004800958863L546.931175,291.6174578652689L550.2307999999999,297.3279187825638L550.597425,275.5447194707976L551.477325,278.86735438499124L554.850275,284.6719923503592L562.182775,293.66795222081544L566.80225,295.5086734067005L568.85535,285.05044521029214L570.541825,257.9807600242086L574.2814,263.7960339621672L576.77445,269.75746758703116L577.727675,280.17500148695063L582.7871,288.2857428484481L583.3737,283.88086938897663L583.9603,291.41268073008365L585.206825,295.66040236986987L586.3800249999999,301.2830810140926L587.259925,308.0073424279414L589.899625,306.7203170507898L590.486225,307.0691259766395L592.31935,303.10469762666L592.3926749999999,309.76784316241424L594.7390750000001,313.67363920197596L594.885725,311.2815478140825L596.352225,311.10575672837524L596.71885,313.03974339134675L596.8655,317.82772239039804L597.01215,320.7331405579191L598.9186,318.6222730884182L603.098125,294.08653194589465L604.4179750000001,292.0145083367302L607.057675,277.26908041730786L607.2043249999999,286.42683563928546L608.5975,284.1090634472238L610.9439,292.2922000056863L611.09055,295.20706798133494L612.8503499999999,291.40239175704636L612.923675,298.1941491364714L613.2903,286.9426004846244L613.656925,295.1410439454927L616.36995,300.9008570332401L617.6898,280.88671509396687L619.082975,285.7209977524925L620.256175,293.96290993821657L621.282725,289.96313655494487L622.602575,298.07013300987035L622.82255,305.05467421674484L625.3156,310.0225563126542L625.535575,313.2162727872495L626.63545,316.9964433832931L627.002075,314.2979987036756L627.9553000000001,316.4822717680945L628.321925,314.36327704955863L629.495125,319.4713655894275L629.86175,324.4946464515475L630.228375,304.5395657137109L630.521675,311.44330938102706L631.694875,307.79120907284533L634.187925,305.40464234538814L635.947725,312.12621360589213L639.394,310.94173022322093L640.12725,317.19812801968067L640.4205499999999,322.2745444756439L641.59375,327.24001526308774L642.400325,331.0761517745797L644.160125,335.5174475108623L645.40665,332.5986730193631L646.7998249999999,326.616121806898L648.33965,328.9910300189042L648.92625,311.6354791931715L649.586175,317.750652191407L650.759375,321.73660036189347L653.7656999999999,294.39602413015257L653.985675,297.53504282249037L654.79225,303.744710678972L655.305525,310.46307294230206L658.091875,316.69031182075037L659.265075,312.4281996769711L659.6317,297.72234469798246L659.77835,304.57975349681914L661.24485,309.52770639729107L662.051425,315.6133408578182L663.1513,304.3454551963756L663.88455,289.98369832852234L668.504025,298.00964421274136L668.724,305.02828367519066L669.16395,311.91455881815074L671.9503,316.99143485495273L672.97685,318.5886507853065L673.1235,323.72557288872946L675.1032749999999,325.4875624072649L676.423125,311.71091076363L678.476225,308.26055640544485L680.01605,309.5536444456318L682.5091,314.1950618767584L684.41555,318.45368923489855L684.70885,320.6909909215584L685.808725,295.3819909781529L686.835275,298.82444452656125L688.155125,306.0901676614735L691.0148,312.0780930330046L691.821375,315.57282486843263L691.8947,310.0530851975925L693.9478,313.5984727736575L694.2411,305.72503899103765L694.38775,302.5348464718434L695.26765,306.7345912082866L697.02745,313.46195642571774L697.90735,316.8150779563091L698.49395,294.3420659524313L698.9339,300.4547346661389L699.7404750000001,305.5927708433976L700.3270749999999,311.4641630826611L700.4737250000001,310.41748620275627L703.406725,290.9687408713855L704.0666500000001,296.9854413546644L704.2133,301.8801664689948L704.433275,303.6814692419561L706.70635,307.8449648004386L707.1463,313.2648486448777L708.3195,318.51397113334207L713.232275,322.7810110330379L713.4522499999999,323.4494973293758L715.3587,303.5825618827974L715.725325,309.3134779246818L718.1450500000001,304.8977135043298L718.218375,299.46669929612267L720.124825,292.2163551216297L721.37135,285.2843952187375L721.6646499999999,259.29385616060375L722.25125,270.41821416873387L722.617875,278.8559812614599L722.6912,280.07820384088666L723.1311499999999,288.54829928373454L724.5976499999999,292.4238138753736L725.550875,297.95084324804026L725.990825,304.54940388544765L727.8239500000001,285.7872103507313L728.0439250000001,286.8962596386168L732.2234500000001,289.8629419641241L735.5964,288.3955217533201L736.62295,283.56914776361L737.20955,289.45510994013557L738.896025,289.751289160597L738.9693500000001,288.88424720405834L740.2892,288.59181939597295L742.19565,294.53423697980077L743.8088,301.6336979807282L745.201975,308.6291929860193L745.2753,313.3578771413714L747.3284000000001,318.1974148417726L749.0882,323.4396239117974L750.0414249999999,325.3338362928802L751.9478750000001,307.6953196228461L753.5610250000001,308.07271966247015L754.000975,314.0555026865743L754.5875749999999,312.3208133799899L754.9542,313.60047115293753L758.840425,315.63788850771243L759.0604,317.84915422698026L759.866975,321.57243189583374L760.8935250000001,312.5000487688495L762.3600250000001,315.96574165830833L763.386575,305.1311363197251L763.7532000000001,305.79334426275847L766.759525,312.35327002273755L769.252575,318.51585526980546L770.2058,323.2235776270015L771.452325,317.0864627913757L772.1122499999999,314.8399409950288L773.4321,320.380695548451L773.87205,323.2324529182081L774.531975,315.599266370341L777.68495,321.1482970361256L778.5648500000001,319.87021929620795L778.7115,322.6318138990718L779.224775,323.261791258904L781.571175,326.0480871467465L781.864475,321.5852317374752L784.1375499999999,285.9406445429351L784.5775000000001,290.2946354314747L785.8973500000001,297.5825625944691L786.3373,304.9649984253894L788.3904,289.87308173498576L788.5370499999999,283.23329192210196L790.1501999999999,274.21447500813065L790.2968500000001,284.16501083559297L791.0301,288.23512761123834L791.836675,296.9270914637925L793.596475,299.93957243556713L794.3297249999999,306.57843865404965L796.6761250000001,313.4278737374187L797.04275,319.5565978540714L797.5560249999999,317.18822058323644L798.3626,312.39701543505254L798.80255,318.7051554586898L800.489025,324.102748970292L800.782325,319.6551356733757L805.475125,323.8738123753494L805.8417499999999,281.0291049004539L807.01495,289.3145453923791L808.994725,285.64657284363744L810.167925,290.82965233216856L810.8278499999999,292.08534361979525L811.70775,299.9426704168821L815.1540249999999,293.3431918152624L815.4473250000001,298.072114240687L817.7203999999999,303.44425422192097L820.50675,309.1254440855625L821.4599750000001,314.87278373097166L822.1199,320.8662137586555L822.85315,325.76402086405085L823.1464500000001,329.6842138782075L825.0529,331.45091599160816L827.912575,334.6763131811315L828.7924750000001,337.484911330013L828.939125,339.17874400687384L829.4524,340.2502474982038L830.552275,343.2100801384593L831.2121999999999,343.9631625716419L831.8721250000001,333.86225151956853L832.3854,335.2460095509559L832.8986749999999,326.6936644774877L833.3386250000001,323.4198458727184L833.41195,325.5090094230954L833.8519,322.19732037386757L834.218525,325.151653465443L834.951775,323.53668146841903L837.22485,324.6117724355247L838.9113249999999,327.9546684820024L839.057975,332.11666045250604L840.0111999999999,326.3231368610849L841.1844,330.55643393443336L842.3576,302.80079980752544L842.430925,293.18617045537144L842.5042500000001,296.3297447690363L846.0238499999999,303.3071217687027L846.6837750000001,302.1743556594835L847.3437,301.4735265595106L848.07695,271.68273693125934L850.056725,280.3010435384645L850.6433249999999,285.56433703441627L851.0832750000001,293.85325925246167L852.0364999999999,285.2055447561121L855.776075,294.2502232494522L855.8494000000001,286.06900062683343L856.069375,290.5502277560115L857.3159,297.1027489714197L858.1958000000001,292.94210040083874L858.7824,299.5707192744833L860.5422,306.93152112026206L860.68885,313.2667871689625L861.788725,319.0857023241117L861.86205,316.1033788698708L863.1819,302.8869989315684L864.3551000000001,298.62069178422433L866.188225,297.7645510586115L866.9947999999999,304.68413341882933L867.948025,310.4400454492251L868.90125,307.9020497240416L870.147775,311.2227468882017L870.66105,315.9435984278333L872.12755,316.6561193134537L872.8607999999999,320.83669661129863L873.7407,324.1030823129497L873.814025,319.6260375980808L876.0871000000001,323.8465565337585L876.160425,324.72491828247524L876.2337500000001,323.3461716620142L876.967,328.373952698406L877.9202250000001,329.59064726881854L878.360175,333.9564177812875L878.9467750000001,330.79181930815844L879.3867250000001,292.66312794741094L884.5194749999999,294.6297637698103L886.4992500000001,279.33878197564127L888.772325,286.1884096410284L889.1389499999999,288.8514972917009L890.01885,294.36455172127404L893.7584250000001,301.2187871708803L893.905075,308.58731419748557L895.1516,306.78526359216215L895.664875,287.02015005821244L896.3981249999999,295.4898506910536L899.6244250000001,298.6437188903332L900.431,304.4341318928059L901.6042,311.19102900244997L904.9771499999999,314.664456011021L905.1971249999999,302.10623405481124L905.27045,294.3348819960582L908.863375,302.17998042101505L912.529625,298.4994130785799L912.9695750000001,306.21876202504905L913.0429,313.0659931124048L913.48285,316.67039361186L916.635825,320.71945145009414L917.88235,307.8144073133728L920.3020750000001,311.5343427748039L921.035325,317.85157034089156L921.9152250000001,322.56973111094027L922.501825,317.1660112610945L923.6017,322.11155948582694L924.92155,325.9929922137565L926.3147250000001,329.25209640537855L927.047975,328.2219977554444L927.194625,332.7594584089108L931.740775,324.7308229044506L932.474025,319.5197086663928L932.9873,325.13589509923725L933.3539249999999,328.52074663926686L934.527125,329.87719513555936L935.0403999999999,330.53740929983576L935.993625,334.5184609828419L936.4335749999999,333.62625031115846L941.63965,335.7185162524185L945.6725250000001,335.3302524822773L945.965825,336.1191921943465L951.4652000000001,312.22781947479996L954.83815,292.12426868780176L954.911475,293.58703412148697L955.2781,293.6057823238771L955.8647000000001,289.4719594880145L957.18455,296.0040140110037L960.1175499999999,303.8394846463082L961.8773500000001,294.541554402261L962.3173,274.01166285261917L962.390625,283.31791240241995L962.977225,290.3916812592763L964.883675,297.16508300837046L965.69025,303.83118091436774L968.4766,307.0386612730353L968.7698999999999,307.51277713432074L969.2098500000001,304.43064428576577L969.723125,306.8132538406836L969.79645,313.5522722021772L970.6763500000001,319.7127706227568L971.9961999999999,322.7905598716021L974.0493,312.9484892738335L974.855875,311.49553163123386L977.42225,315.23323065583935L977.4955749999999,319.2506954172306L978.082175,324.0812476996727L979.9153,323.3059469294283L982.11505,328.31122249598894L982.8483,332.72917632199363L983.214925,331.5613555922442L985.707975,333.5697050117354L986.0746,315.69416990484893L986.2212499999999,307.05863333886356L986.80785,309.7022237681442L987.027825,312.9559416902845L987.174475,317.9178057347244L989.1542499999999,314.44402612954934L990.107475,319.4673190692017L991.79395,315.01435390323945L991.8672750000001,318.67008968879276L993.9937,323.70838600094663L995.02025,328.56073848804823L995.6068499999999,323.66821148754053L998.026575,326.7778842149655L1000.372975,331.2493077556175L1004.2592,330.50447184204L1005.505725,334.23776968690794L1007.1922,313.75496565834425L1008.21875,319.4835013268606L1008.6587,318.8900819685454L1009.318625,302.10319152471976L1010.7118,292.15522878863214L1010.8584500000001,291.165512201667L1013.1315249999999,276.25363130741533L1013.2781749999999,259.6508522732645L1013.5714750000001,270.2269278092415L1014.5246999999999,254.6921029558686L1015.1113,256.7481706881341L1015.331275,267.3646831978793L1015.624575,277.3089169718317L1016.797775,280.167743036324L1017.4576999999999,289.28855442951794L1017.8976500000001,293.4730202670456L1020.6106749999999,296.07257096012484L1020.9773,301.88308581050285L1022.2238249999999,308.29980997992004L1023.250375,314.40312930298046L1023.3236999999999,254.44421965993425L1024.35025,264.3565526485968L1024.4969,273.81894051556543L1024.863525,281.74674179327764L1026.183375,284.8321208869919L1027.4299,290.400938662286L1028.529775,298.39327009385414L1030.729525,305.97714974822134L1031.1694750000001,310.4354061137376L1031.5361,315.95231566485404L1032.1227,321.90747989877474L1036.448875,323.50304911432636L1037.9886999999999,328.6362150209837L1038.8686,329.2419806686961L1039.381875,311.6785534392924L1039.6751749999999,315.195340739093L1041.94825,321.0263094328459L1043.781375,326.28380137145314L1044.00135,321.2765778036298L1044.58795,309.9531043567502L1045.76115,316.3078048647363L1046.421075,303.4240263997343L1048.69415,308.6484759826406L1048.8408,311.96856220176323L1049.1341,316.60076979050484L1049.7207,314.9968939972371L1049.794025,316.59454985630566L1051.847125,318.14587889467526L1052.50705,311.4975731186009L1052.873675,317.4381999980154L1053.38695,290.03628179328325L1053.6802500000001,298.57611502131897L1055.44005,286.71253846117827L1055.73335,282.5333251061645L1055.8799999999999,291.49723139838346L1057.419825,299.04807083226615L1057.49315,306.5369177987862L1057.5664749999999,313.23282909357243L1058.593025,315.5526857015225L1059.0329749999999,321.1147673083404L1059.472925,319.2911326386286L1061.4527,324.3541130617736L1061.59935,323.8200897908141L1061.7459999999999,327.7481054218945L1064.82565,326.88618413777186L1067.1720500000001,326.9356519634915L1070.618325,331.29657644404506L1073.62465,335.09564055265173L1074.0646000000002,338.26847216521764L1074.431225,335.0455930583831L1076.337675,329.63368302959606L1078.4641000000001,334.12787500796776L1079.8572749999998,331.4905579785531L1083.89015,335.16614173054927L1084.550075,337.315165026786L1088.6562749999998,307.634665983341L1089.4628500000001,313.43806993134785L1092.615825,317.2998087719199L1092.909125,322.324279134582L1094.15565,326.4982077356174L1095.7688,327.30669076724797L1097.8219000000001,327.46283896302737L1098.1152,331.3084623553554L1098.26185,335.7235362568875L1098.481825,339.47744493054273L1099.655025,341.3633821510298L1100.60825,344.51242236571716L1101.19485,335.26929302066054L1101.6348,339.08055098448733L1101.9280999999999,339.9853818569092L1102.5147,328.1334881999252L1102.588025,331.2927507809144L1103.321275,335.7449535876703L1103.3945999999999,339.64550086329854L1106.3275999999998,343.0779843001781L1106.6209000000001,346.3349480184524L1113.6601,334.4502215223856L1115.27325,332.39527300334106L1116.519775,329.8606204331171L1117.03305,332.9833442833251L1117.692975,325.7423708378875L1118.20625,327.349502766693L1119.012825,329.80774313520186L1121.505875,334.3804039238489L1122.1658,338.49878683139434L1125.4654249999999,336.5357806345284L1128.3251,313.6819469148332L1130.52485,319.55840194130667L1133.237875,324.9888009971182L1138.15065,328.4508520182193L1138.810575,333.1043397376846L1138.8839,333.0879586786945L1140.20375,336.7974167255886L1140.79035,339.5274518658216L1142.1102,343.0448251352007L1142.9901,346.15502106776L1143.2834,349.00946367064756L1145.556475,330.57679338307855L1146.94965,334.97632883243523L1147.0963,318.1628175738204L1147.24295,321.91416146422165L1147.316275,327.0255754747318L1148.2695,331.4941020503634L1151.34915,325.09008209759935L1152.3757,329.8189096810366L1153.8422,333.731336831376L1155.528675,319.512438010566L1157.1418250000002,323.86568204984394L1158.68165,328.55612920108234L1160.808075,333.05195553943037L1162.127925,336.7522247253365L1163.96105,338.4320161259826L1165.13425,342.1347390896786L1167.0407,343.4481782831786L1168.06725,346.5746020023385L1171.073575,334.23694199620917L1171.7335,336.61682733664225L1173.63995,340.432561089209L1175.766375,306.91577589576457L1176.57295,313.78392260703953L1180.6791500000002,315.3884049841778L1181.485725,312.63092937967326L1181.7057,317.902582073818L1182.512275,317.28329577262133L1182.952225,321.5719700380508L1183.4655,323.1465788415978L1184.7853499999999,320.706177961699L1186.178525,322.6882352895385L1186.471825,326.21061790289104L1186.9851,319.4206372009859L1187.42505,322.6170888450177L1188.30495,321.2280222948182L1189.111525,322.9310410040825L1189.551475,327.228021402795L1189.6248,331.7679633121192L1192.1178499999999,333.71887657428283L1192.631125,333.0568396612609L1198.203825,337.31389947260607L1198.790425,340.878469729152L1199.15705,342.5358514377018L1199.670325,345.7733531908131L1200.03695,339.0276991590205L1200.110275,342.3050958269992L1200.6968749999999,345.1604467286411L1201.6501,348.1962026215555L1202.456675,350.27632489912367L1202.53,352.77860266682524L1202.896625,355.085623175647L1203.923175,351.4090685006693L1204.509775,353.39780760268803L1204.5831,355.4834906614263L1205.1697,341.3798534155682L1209.42255,342.44066389031366L1209.5692,345.7824675303611L1212.428875,345.74053182360745L1212.5022,347.42588395716245L1213.3821,310.07068388618376L1215.508525,315.62784080467236L1218.8814750000001,321.3600065789913L1220.494625,325.80730631888565L1226.1406499999998,316.5544727945982L1227.1672,320.9310943349395L1227.827125,313.62978275396165L1228.927,310.83036190072664L1230.173525,309.18556063195035L1230.760125,311.17160897988055L1232.5932500000001,313.92353599254466L1233.253175,317.99472414539014L1234.793,322.68723861502787L1235.599575,327.96701832353534L1236.5528,331.9140541152707L1236.8461,336.01898350970407L1239.119175,336.3712152579508L1239.4858,339.48385428887343L1239.92575,342.536414036667L1240.732325,343.49107109364274L1241.025625,341.79702365568045L1242.1254999999999,344.6861878457535L1243.15205,341.3679482083104L1245.2784749999998,344.498211096006L1247.918175,346.0665659892059L1251.291125,346.70438770142664L1251.36445,337.51380500116665L1251.65775,341.0801019999072L1253.71085,336.5050277331885L1254.59075,337.46437020177393L1255.324,326.9016496933229L1255.6173,330.8068029728586L1256.64385,322.0807218494365L1257.743725,326.6909211236352L1259.4302,330.2440187689963L1260.090125,334.72812402934557L1261.116675,336.36567483764543L1261.7032749999998,340.2589742405786L1269.84235,308.5932889200465L1271.01555,314.55770697598604L1272.0421,308.6497640943969L1273.06865,299.43419540552304L1273.728575,306.34852111727207L1275.855,312.9789910895247L1276.58825,319.1439617666708L1277.248175,324.7998022294571L1278.4213750000001,329.7883680351329L1278.861325,333.7159437148747L1279.9612,327.92016308983955L1280.40115,332.6722290306653L1280.474475,336.49864953561905L1282.45425,338.0595233114944L1282.6009000000001,341.5739460699407L1283.1875,344.32887511391266L1285.313925,346.0813024078304L1291.25325,347.17601644009795L1292.939725,350.0510385974022L1293.30635,351.1369284733529L1295.5060999999998,352.04956667422806L1297.8525,351.8926990898411L1298.7324,350.8571120097999L1299.46565,346.65083564870434L1301.445425,349.3999638894954L1302.252,348.8755002991143L1303.938475,351.16228141121115L1304.45175,349.9914466794217L1304.6717250000002,352.4569653181032L1305.258325,354.0503622538861L1305.62495,349.5038155975257L1306.21155,351.9596041241495L1306.6515,347.20903426997734L1307.458075,328.7078258706489L1310.5377250000001,316.284526759587L1310.684375,316.6309507914206L1314.057325,317.89448160579184L1314.13065,320.9239221551552L1315.8904499999999,325.65803027323693L1317.06365,330.58860870666433L1318.3835000000001,334.42207414602655L1320.8032249999999,337.6014192121811L1322.1964,310.5803135092883L1322.92965,317.10882928258235L1325.4227,322.6744468268747L1327.549125,327.44423479252015L1327.7691,325.55229137313023L1328.4290250000001,318.4658377624998L1329.015625,323.60818516380635L1330.8487499999999,328.6986097596619L1333.415125,324.0015774540385L1333.48845,326.7483332579386L1337.1547,325.65837532307177L1337.374675,322.6173841617795L1337.521325,326.62089108487595L1337.961275,328.9756550118781L1342.800725,326.72112153102074L1345.0738000000001,331.54212949167885L1345.22045,332.6317518139092L1348.5934,335.9102794702636L1348.813375,334.89591677171074L1349.986575,338.31316601970667L1350.0599,338.2783731238543L1350.2065499999999,341.6734866770455L1351.159775,340.6446459079895L1355.3393,336.80586550897385L1355.559275,340.7043169735501L1360.4720499999999,334.15973946241206L1364.064975,334.3910786798487L1364.2116250000001,303.8980043055416L1364.944875,310.72305090858254L1367.51125,308.8245838132534L1368.171175,314.3678244558305L1368.8311,313.20724137689643L1373.450575,303.0276486958998L1373.743875,309.5472223612014L1377.996725,315.8882736552119L1379.6832,320.8012220297777L1381.00305,318.22628677796035L1383.2028,323.9818898032508L1383.34945,329.14964702276376L1384.302675,325.27736071242083" style="fill: none;" fill="none"></path></g></g></g></g><g opacity="0.2"><g><g><g><path stroke="rgb(255, 112, 67)" stroke-width="2px" d="M154.495775,-372.6336962381999L156.0356,43.013746102650934L158.382,-623.5023488998413L159.2619,-41.03634818394984L160.65507499999998,150.5203959941864L161.534975,54.51480086644488L163.44142499999998,-170.64941946665448L164.54129999999998,-315.86777273813885L165.641175,53.47973283131915L167.32764999999998,183.96509106953937L167.547625,-27.395159244537354L170.040675,-60.512181758880615L172.02045,80.56278045972185L172.90035,13.184206644693997L173.48695,69.4638412793477L174.95345,61.02006769180298L176.12664999999998,-231.4326141675314L177.079875,38.856926918029785L178.693025,57.04522864023843L179.35295000000002,309.4211377302805L180.45282500000002,9.902326424916557L180.746125,195.50517892837524L181.479375,-9.573619206746475L184.04575,-496.4755096435547L185.73222500000003,19.384380340576172L186.09885000000003,-84.48671960830688L186.2455,65.72394784291582L187.4187,28.710675398508695L187.85864999999998,186.52282333374023L190.20505000000003,-8.424440066019722L190.3517,169.8918860753377L193.358025,183.9663050174713L193.79797499999998,212.3338589668274L193.87130000000002,-158.86086448033657L194.89784999999998,-243.62976535161343L195.557775,302.38595928748447L196.14437500000003,326.6445936361948L199.517325,260.0786085526148L202.6703,-116.54319985707606L203.476875,330.5262761910757L203.99015,329.5595114032427L204.43009999999998,-17.68973890940351L205.6033,77.03441278139749L209.48952500000001,-301.8507455190023L210.14945,-212.00369501113892L211.61595000000003,181.22847890853882L215.72215,268.70450234413147L219.901675,258.83569395542145L221.074875,302.39439622561133L221.58815,229.5551017522812L221.88144999999997,294.1457507610321L222.688025,20.239821434020996L224.0812,256.9859267870585L225.181075,155.41544493039447L225.62102499999997,259.0693789323171L227.16085,-91.994445959727L227.96742500000002,325.39141650994617L228.11407499999999,-20.672166188558L229.140625,-43.38554286956787L229.6539,162.96967482566833L231.047075,317.9137026866277L231.1204,201.9267206986745L232.0003,357.4988510559002L232.73355,143.12233583132425L232.8802,317.47966027259827L233.4668,202.77334666252136L235.95985,233.75493204593658L236.473125,318.43973433971405L238.4529,28.75254726409912L238.59955000000002,33.839399973551416L238.819525,-82.76127004623413L239.112825,127.88161174456278L239.552775,269.52769911289215L239.846075,110.72708940505981L241.82584999999997,302.1774077018102L243.80562500000002,107.57758553822832L245.27212500000002,349.026772638162L247.471875,291.11253376801807L247.5452,29.342227141062406L250.551525,346.0615950922171L252.164675,267.0934813817342L253.48452500000002,8.828785578409818L253.55785,236.11340876420337L256.19755,258.9629063606262L256.78415,360.2953458676735L257.37075,255.26124294598895L257.590725,240.38132286071777L260.1571,320.9264132976532L260.37707500000005,260.1380546490351L261.403625,61.09634097417193L261.6236,255.66314375400543L261.990225,194.10265819231668L262.870125,237.36852820714313L263.6767,287.9596401850382L265.949775,-400.48248354593926L266.536375,178.74560054143268L269.10275,185.63507254918414L270.202625,334.3423775434494L271.44915,277.78828795750934L271.5958,276.7643322149912L271.815775,353.95622766017914L272.10907499999996,326.4119171698888L276.801875,164.6066182454427L276.94852499999996,323.703856130441L277.82842500000004,341.39036080241203L282.081275,359.5913436114788L283.0345,206.53847153981525L283.547775,336.40374517440796L285.894175,292.2736936410268L286.11415,335.91484632094705L286.5541,81.87982058525085L286.627425,314.0958831310272L288.6072,356.135527998209L288.9005,367.73674397170544L289.267125,115.5993161201477L290.367,320.5959860086441L290.44032500000003,191.72972615559894L291.760175,327.75927797953284L298.43275,236.76474785804749L299.092675,115.62531328201294L299.825925,317.0802760720253L300.6325,223.40045110384622L302.025675,361.3124066193899L307.52505,206.75644056002298L308.624925,11.261761347452786L310.824675,334.5926842689514L311.1913,294.93522779146826L316.690675,267.90563122431433L319.623675,340.6976517637571L322.19005,163.66231616338092L325.2697,26.105393727620417L325.636325,259.4606063365936L326.58955000000003,56.740509033203125L327.17615,343.9644300043583L327.396125,234.1933166583379L328.862625,241.54471453030902L330.182475,243.8103055556615L331.209025,353.2974974910418L331.355675,334.2121956348419L332.16225000000003,281.7493813832601L335.608525,356.8648399015268L335.68185,325.4739229480425L337.221675,160.49363191922504L339.274775,288.20181345939636L339.861375,302.71764721473056L340.447975,361.43146923184395L342.72105,-9.382188955942818L343.234325,257.860072016716L343.4543,335.53740656375885L344.114225,276.16712586085L345.2141,295.3721650044123L345.874025,54.94681692123413L347.12055,127.99646989504495L347.487175,119.76255989074707L347.5605,98.97876278559366L348.513725,314.3487671613693L348.58705,339.13266510764754L348.660375,339.7976867953936L349.393625,137.51174863179523L349.6136,230.76842403411865L350.860125,328.12982157866156L352.8399,372.16908702378475L354.45305,326.2249038219452L355.1863,347.0703461368879L356.432825,103.56109873453775L356.50615,350.7614552080631L360.83232499999997,329.2026527325312L363.1054,159.34219296773273L363.325375,276.4942007859548L363.83865,238.26108809312183L364.64522500000004,301.1713810364405L369.11805,249.2267638047536L370.071275,-65.04935884475708L372.71097499999996,232.62365396817523L372.7843,354.3414343496164L374.17747499999996,67.14025155703226L374.25079999999997,328.15081820885337L374.324125,16.81559181213379L375.350675,369.92759315669537L375.42400000000004,224.9268132050832L375.497325,239.85437607765198L376.0106,246.43076157569885L377.257125,340.4984942674637L379.310225,326.0846928358078L380.7034,334.5114571452141L381.216675,140.0870177745819L382.53652500000004,360.53582545121515L382.7565,314.97440791130066L384.296325,302.522453725338L386.05612499999995,191.15491247177124L386.27610000000004,337.8056776126226L389.06244999999996,117.7770266532898L391.5555,280.2238783836365L392.72869999999995,239.1232992808024L394.04855,253.79020885626474L394.855125,116.50155957539873L396.2483,363.4452769507965L397.27484999999996,318.86747823158896L400.42782500000004,345.3157945076624L402.040975,-21.620614369710342L402.1143,358.06086575984955L402.62757500000004,366.5586063365141L402.774225,340.80683237314224L403.2875,366.4847586154938L405.19395,364.3991283675035L408.12694999999997,346.3993130723635L408.34692499999994,285.31108593940735L408.86019999999996,82.14673972129822L409.7401,354.13285008072853L410.62000000000006,238.44755049546558L411.57322500000004,349.5059015452862L411.64655,268.7977989117304L411.7932,303.7074536681175L414.57955,280.8913162946701L414.79952499999996,-221.44242032368984L414.946175,26.90996106465655L415.09282500000006,-56.047953605651855L415.31280000000004,124.28571120897928L415.60609999999997,350.12067979574203L415.82607500000006,83.3279857635498L417.21925,-101.67674525578822L418.8324,-13.103555679321289L419.199025,333.41047640641534L422.425325,242.38925810654956L423.96515000000005,296.6988606850306L428.8046,360.8879975825548L428.95124999999996,239.52319240570068L430.344425,168.19910105069476L432.76415,294.0989110469818L433.42407499999996,305.3138382832209L433.717375,83.27884888648987L434.15732499999996,204.42904090881348L435.03722500000003,320.59135433038074L435.2572,-21.843009630839056L437.45695,331.1151950160662L438.11687500000005,358.1374542017778L438.55682499999995,210.7425039609273L440.82989999999995,308.28756715854007L440.97655000000003,226.0020068883896L441.63647499999996,360.44776987036073L442.44305,155.49696620305377L442.883,341.82938040296233L443.396275,160.39586242039996L446.1093,365.305549437801L447.942425,317.50698343912757L448.382375,159.38854710261026L448.822325,197.4742398262024L449.04230000000007,165.3981122970581L450.65545000000003,177.22700770696002L453.22182499999997,357.19864640136564L454.0284,346.08694325884187L456.594775,356.7756870985031L458.207925,309.2842464248339L458.794525,318.8420040011406L463.26735,351.60502295692766L464.0006,370.3164685368538L464.44055,144.66341471672058L468.913375,95.29409464200334L472.432975,139.5468856493632L473.23955,270.05712048212683L474.11945,344.61770441134775L478.44562499999995,178.9902950922648L479.178875,286.7827550172806L479.47217500000005,210.76129213968912L481.3053,309.5637859503428L481.59860000000003,109.6098837852478L482.03855,256.1632996400197L484.60492500000004,353.3631020387014L484.8249,352.60324300328887L487.53792500000003,345.6476178367933L488.271175,246.20850638548532L490.25095,311.662113626798L490.54425000000003,282.1760747432709L490.6909,223.174610098203L491.13084999999995,218.7214475472768L491.790775,333.22770253817237L493.47725,364.97816752394044L493.990525,343.1773341794809L495.60367499999995,367.61093052476645L496.55690000000004,331.2324950695038L496.8502,329.1184280912081L496.923525,287.02585275967914L499.123275,348.116736570994L500.80975000000007,350.90954284866655L500.95640000000003,350.70623691876733L501.176375,339.2584534585476L501.24969999999996,349.61477633317315L501.8363,333.17959751685464L504.62265,310.5106840133667L505.575875,250.75216408570606L506.67574999999994,302.9482879837354L508.068925,285.88217373689014L508.8755,353.3552533984184L509.535425,16.41424194971719L511.8085,324.6592144767443L512.615075,307.04005823532736L514.9614750000001,302.44856164852774L516.721275,304.0202787121137L518.11445,358.32242718338966L519.067675,332.8344020843506L519.141,342.7022486527761L519.7275999999999,289.3578373988469L519.87425,374.5752161592245L522.9539,371.5370184779167L523.2472,334.4113811453184L523.5405,297.51953617731726L524.347075,162.78254008293152L524.56705,347.30598743756616L524.6403750000001,171.04409074783325L526.986775,312.42822682857513L527.79335,205.2786924044291L527.9399999999999,368.6521610965332L528.306625,367.4831490814686L529.25985,357.262693827351L529.773125,288.5509822368622L530.72635,347.3456952075163L531.8262249999999,223.13781813780466L532.48615,361.4805640876293L532.706125,-74.66535790761317L534.905875,328.99776633580524L536.665675,333.7272981405258L536.8856499999999,180.589923620224L537.0323000000001,272.0273953278859L537.3256,352.48134162028634L537.7655500000001,289.46710205078125L539.8186499999999,237.12908164660135L540.40525,341.84979340434074L542.091725,150.66442624727884L542.824975,374.4152885867903L545.904625,340.66562221447623L546.5645499999999,375.45336789125577L546.931175,263.514146566391L550.2307999999999,348.72206703821814L550.597425,79.49592566490173L551.477325,308.77106861273444L554.850275,336.9137340386709L562.182775,374.6315910549214L566.80225,312.07516407966614L568.85535,190.92639144261676L570.541825,14.353593349456787L574.2814,316.1334994037946L576.77445,323.4103702108065L577.727675,373.93280658622587L582.7871,361.2824151019255L583.3737,244.2370082537333L583.9603,359.19898280004656L585.206825,333.88989712794626L586.3800249999999,351.88718881209695L587.259925,368.52569515258074L589.899625,295.1370886564255L590.486225,310.2084063092867L592.31935,267.4248424768448L592.3926749999999,369.7361529842019L594.7390750000001,348.8258035580317L594.885725,289.75272532304126L596.352225,309.5236369570096L596.71885,330.44562335809076L596.8655,360.9195333818594L597.01215,346.881904065609L598.9186,299.6244658629099L603.098125,73.26486166318254L604.4179750000001,273.36629585425055L607.057675,144.5602291425069L607.2043249999999,368.84663263708353L608.5975,263.2491137186686L610.9439,365.9404290318489L611.09055,321.4408797621727L612.8503499999999,257.1603057384491L612.923675,359.31996555129683L613.2903,185.67866261800128L613.656925,368.9270350933075L616.36995,352.7391748229662L617.6898,100.75943764050798L619.082975,329.2295416792234L620.256175,368.14011960973346L621.282725,253.96517610549927L622.602575,371.0331011041999L622.82255,367.9155450786153L625.3156,354.73349517583847L625.535575,341.9597210586071L626.63545,351.0179787476858L627.002075,290.0119965871175L627.9553000000001,336.14072934786475L628.321925,295.29232458273566L629.495125,365.4441624482473L629.86175,369.7041742106279L630.228375,124.94383907318115L630.521675,373.577002386873L631.694875,274.9223062992096L634.187925,283.9255417982737L635.947725,372.620354950428L639.394,300.2813797791799L640.12725,373.5057081878185L640.4205499999999,367.96229257931316L641.59375,371.92925235008204L642.400325,365.6013803780079L644.160125,375.489109137406L645.40665,306.32970259586966L646.7998249999999,272.7731608947118L648.33965,350.3652039269606L648.92625,155.43552176157633L649.586175,372.7872091755271L650.759375,357.61013389627135L653.7656999999999,48.33083804448443L653.985675,325.78621105353034L654.79225,359.6317213873068L655.305525,370.928333312273L658.091875,372.7354617267847L659.265075,274.06919038295746L659.6317,165.36964988708496L659.77835,366.2964326863488L661.24485,354.05928250153863L662.051425,370.38405100256205L663.1513,202.93448424339294L663.88455,160.7278865178426L668.504025,370.24315717071295L668.724,368.19603883723414L669.16395,373.8910351047913L671.9503,362.68331918617093L672.97685,332.96359415849054L673.1235,369.95787181953585L675.1032749999999,341.3454680740833L676.423125,187.72104597091675L678.476225,277.20736718177795L680.01605,321.1914368073145L682.5091,355.9678187568983L684.41555,356.78133545815945L684.70885,340.82670610149705L685.808725,67.60099148750305L686.835275,329.806526462237L688.155125,371.48167587568366L691.0148,365.9694213767847L691.821375,347.02541138728463L691.8947,260.3754281600316L693.9478,345.5069609582424L694.2411,234.8641349474589L694.38775,273.82311379909515L695.26765,344.5322938362757L697.02745,374.0082433825979L697.90735,346.9931717316309L698.49395,92.0849579175313L698.9339,355.46875308950746L699.7404750000001,351.8350964387258L700.3270749999999,364.3066932360331L700.4737250000001,300.99739428361255L703.406725,115.93003288904825L704.0666500000001,351.13574570417404L704.2133,345.9326924979687L704.433275,319.8931941986084L706.70635,345.3164248267809L707.1463,362.0438032448292L708.3195,365.7560735295216L713.232275,361.1843701303005L713.4522499999999,329.4658739964167L715.3587,124.78014286359148L715.725325,360.89172230164206L718.1450500000001,265.1558337211609L718.218375,250.587571422259L720.124825,226.96325755119324L721.37135,222.8967560927073L721.6646499999999,25.379004637400296L722.25125,370.53743624190486L722.617875,354.79588509599364L722.6912,291.0782070557276L723.1311499999999,364.77915826936567L724.5976499999999,327.30344520012534L725.550875,347.69410760203994L725.990825,363.93644962211454L727.8239500000001,116.9274685382843L728.0439250000001,296.87770322958625L732.2234500000001,316.56308289368945L735.5964,275.18873985608417L736.62295,240.13178185621896L737.20955,342.4287695288658L738.896025,292.41690214474994L738.9693500000001,281.0808695952097L740.2892,285.95996912320453L742.19565,348.015995234251L743.8088,365.5288469890753L745.201975,371.58864803363883L745.2753,355.91603453954065L747.3284000000001,361.75325414538383L749.0882,370.61950554201997L750.0414249999999,342.38174772262573L751.9478750000001,148.94866959253946L753.5610250000001,311.4693200190862L754.000975,367.900549903512L754.5875749999999,296.70860962073004L754.9542,325.11739110946655L758.840425,333.9746447006861L759.0604,337.75054570039117L759.866975,355.0819309155146L760.8935250000001,230.84860062599182L762.3600250000001,347.1569776634375L763.386575,207.6196882724762L763.7532000000001,311.7532157500585L766.759525,371.3926018625498L769.252575,373.97912249341607L770.2058,365.59307884176576L771.452325,261.8524292707443L772.1122499999999,294.62124482790625L773.4321,370.247486529251L773.87205,348.89826924602187L774.531975,246.90058743953705L777.68495,371.0895730281869L778.5648500000001,308.3675196369489L778.7115,347.48616532484687L779.224775,328.93158749739325L781.571175,351.1247501373291L781.864475,281.4195330540339L784.1375499999999,-34.86064020792646L784.5775000000001,329.480553428332L785.8973500000001,363.17390706141794L786.3373,371.4069209036728L788.3904,154.0458315213521L788.5370499999999,223.47518360614777L790.1501999999999,193.0451227823893L790.2968500000001,373.7198332827538L791.0301,324.8661785920461L791.836675,375.1547661367804L793.596475,327.0519011815389L794.3297249999999,366.3282346203923L796.6761250000001,375.07278948773944L797.04275,374.71511490394676L797.5560249999999,295.87282514572144L798.3626,269.27616910139716L798.80255,375.4784156714255L800.489025,372.68109057471156L800.782325,279.62661600112915L805.475125,361.84190269311273L805.8417499999999,-104.5732623736064L807.01495,363.8835098197063L808.994725,252.63481990496317L810.167925,337.4773677289486L810.8278499999999,303.38656520843506L811.70775,370.65861159066355L815.1540249999999,233.9478844006856L815.4473250000001,340.6324160695076L817.7203999999999,351.7935140530268L820.50675,360.2561528583368L821.4599750000001,366.59884053965413L822.1199,374.8070840078095L822.85315,369.8442848126093L823.1464500000001,364.96595100561774L825.0529,347.35123501221335L827.912575,363.70488788684213L828.7924750000001,362.7622946699461L828.939125,354.42323809862137L829.4524,349.89377892017365L830.552275,369.8485739007592L831.2121999999999,350.7409044702848L831.8721250000001,242.9540520509084L832.3854,347.6998318334421L832.8986749999999,249.722558816274L833.3386250000001,293.9554784297943L833.41195,344.31148137648904L833.8519,292.39211893081665L834.218525,351.74065128962195L834.951775,309.0019334952036L837.22485,334.28759113947547L838.9113249999999,358.0407329003016L839.057975,369.5745881870389L840.0111999999999,274.18142453829444L841.1844,368.65610759456956L842.3576,53.000092665354394L842.430925,206.6545062859853L842.5042500000001,324.62191359202063L846.0238499999999,366.10351476569974L846.6837750000001,291.9794606765111L847.3437,295.1660646597544L848.07695,3.5656302769978563L850.056725,357.86580300331116L850.6433249999999,332.933978497982L851.0832750000001,368.4535592148701L852.0364999999999,207.37611428896585L855.776075,375.6523296895126L855.8494000000001,212.43799702326456L856.069375,330.88127191861474L857.3159,356.0754399100939L858.1958000000001,255.49626326560974L858.7824,359.2282891372839L860.5422,373.1787377322713L860.68885,370.2841816072663L861.788725,371.4559387204548L861.86205,289.26246778170264L863.1819,183.93957948684692L864.3551000000001,260.2239274581273L866.188225,290.0592845280965L866.9947999999999,366.96037466078997L867.948025,362.2432537227869L868.90125,285.0600881973902L870.147775,341.10902136564255L870.66105,358.4312622845173L872.12755,323.06880728403723L872.8607999999999,358.4618922919035L873.7407,353.5005536278089L873.814025,279.33263516426086L876.0871000000001,361.83122695485747L876.160425,332.6301740209261L876.2337500000001,310.9374520778656L876.967,373.62398202593124L877.9202250000001,340.540898402532L878.360175,373.24835239350796L878.9467750000001,302.3104330499967L879.3867250000001,-50.495094299316406L884.5194749999999,312.3294861714045L886.4992500000001,141.7199458281199L888.772325,347.8350586295128L889.1389499999999,312.81928614775336L890.01885,343.98204158743226L893.7584250000001,362.90690621733665L893.905075,374.90405743693316L895.1516,290.56680814425147L895.664875,109.13412825266519L896.3981249999999,371.71715638662374L899.6244250000001,327.02853268384933L900.431,356.5478489150604L901.6042,372.0031029892465L904.9771499999999,345.92529908816016L905.1971249999999,189.08223644892374L905.27045,224.39271346728006L908.863375,372.7858662456274L912.529625,265.3743069966634L912.9695750000001,375.69290254327154L913.0429,374.6910728986064L913.48285,349.1099981069565L916.635825,357.1609719942013L917.88235,191.66901008288065L920.3020750000001,345.0137619276842L921.035325,374.70661843568087L921.9152250000001,365.0331780413786L922.501825,268.53253261248267L923.6017,366.62149350841844L924.92155,360.9258867651224L926.3147250000001,358.5840341299772L927.047975,318.95110990603763L927.194625,373.59660429010785L931.740775,252.47310336430866L932.474025,272.6196805238724L932.9873,375.6815729948381L933.3539249999999,358.98441049953306L934.527125,342.0852316021919L935.0403999999999,336.4793367783228L935.993625,370.3479261298975L936.4335749999999,325.5963542660077L941.63965,354.5489097237587L945.6725250000001,331.8358785510063L945.965825,343.2196496029695L951.4652000000001,97.20546499888101L954.83815,111.19231160481768L954.911475,306.7519230246544L955.2781,293.77451614538825L955.8647000000001,252.26755396525064L957.18455,354.79250471790635L960.1175499999999,374.3587203640491L961.8773500000001,210.86018220583597L962.3173,89.24263890584307L962.390625,367.0741583506266L962.977225,354.0556009709835L964.883675,358.1256987502178L965.69025,363.82606206834316L968.4766,335.9059845010439L968.7698999999999,311.77981988588965L969.2098500000001,276.69144864877063L969.723125,328.25673983494437L969.79645,374.20343745561934L970.6763500000001,375.1572564079737L971.9961999999999,350.49066311120987L974.0493,224.3698538939158L974.855875,298.4189128478368L977.42225,348.8725218772888L977.4955749999999,355.4078782697519L978.082175,367.5562182416519L979.9153,316.32823999722797L982.11505,373.3587025950352L982.8483,372.4907607560357L983.214925,321.05096902449924L985.707975,351.64484978715575L986.0746,154.8143539428711L986.2212499999999,229.33880424499512L986.80785,333.4945376316706L987.027825,342.2394029895464L987.174475,362.57458213468396L989.1542499999999,283.1800096829732L990.107475,364.6769555260738L991.79395,274.9376674095789L991.8672750000001,351.5717117587725L993.9937,369.0530528103312L995.02025,372.23191087196267L995.6068499999999,279.6354684829712L998.026575,354.76493876179063L1000.372975,371.4921196214855L1004.2592,323.80094861984253L1005.505725,367.83745029071963L1007.1922,129.40972940127054L1008.21875,371.04032234350836L1008.6587,313.54930774370825L1009.318625,151.0211775302887L1010.7118,202.62356416384378L1010.8584500000001,282.2580629189809L1013.1315249999999,142.04670325915018L1013.2781749999999,110.22584096590677L1013.5714750000001,365.41160763303435L1014.5246999999999,114.8786792755127L1015.1113,275.25278027852374L1015.331275,362.913295785586L1015.624575,366.8070209374031L1016.797775,305.89717761675513L1017.4576999999999,371.37585696826375L1017.8976500000001,331.1332128047943L1020.6106749999999,319.46852719783783L1020.9773,354.17771946390474L1022.2238249999999,366.05032750467456L1023.250375,369.3330032105247L1023.3236999999999,-285.1859671274821L1024.35025,353.5675495465597L1024.4969,358.9804313182831L1024.863525,353.0969532926878L1026.183375,312.6005327304204L1027.4299,340.52029863993323L1028.529775,370.32425297796726L1030.729525,374.2320666375259L1031.1694750000001,350.55971340338385L1031.5361,365.6045016249021L1032.1227,375.50395800406113L1036.448875,337.86317205429077L1037.9886999999999,374.8347081808994L1038.8686,334.6938714981079L1039.381875,153.6077083746592L1039.6751749999999,346.8464264372984L1041.94825,373.50502767662203L1043.781375,373.60122881891823L1044.00135,276.2115656932195L1044.58795,208.04184333483377L1045.76115,373.5001094366113L1046.421075,187.47002021471658L1048.69415,355.6685222287973L1048.8408,341.8493381738663L1049.1341,358.29063808918L1049.7207,300.5620118578275L1049.794025,330.97345258792245L1051.847125,332.1078402400017L1052.50705,251.66282113393146L1052.873675,370.90384191274643L1053.38695,43.41901795069375L1053.6802500000001,375.4346140736403L1055.44005,179.94034941991168L1055.73335,244.92040491104126L1055.8799999999999,372.17238802835345L1057.419825,367.00562573721015L1057.49315,373.9365404974669L1057.5664749999999,373.49603074664867L1058.593025,336.4313951730728L1059.0329749999999,371.1735017697016L1059.472925,302.87842061122257L1061.4527,369.9209368700782L1061.59935,319.01388035217917L1061.7459999999999,363.1002461016178L1064.82565,319.1288925806681L1067.1720500000001,327.38086239496863L1070.618325,370.5448967690269L1073.62465,369.28721753011143L1074.0646000000002,366.823956678311L1074.431225,306.0396810968717L1076.337675,280.9264927705129L1078.4641000000001,374.57560281331337L1079.8572749999998,307.7547047138214L1083.89015,368.2463954985142L1084.550075,356.65637469291687L1088.6562749999998,40.51017459233599L1089.4628500000001,365.6687054634094L1092.615825,352.05545833706856L1092.909125,367.544512398541L1094.15565,364.0635651449362L1095.7688,334.58303805192315L1097.8219000000001,328.8681727250417L1098.1152,365.9190728863081L1098.26185,375.4592013706764L1098.481825,373.26262299343944L1099.655025,358.3368171354135L1100.60825,372.8537842979034L1101.19485,252.08112891515094L1101.6348,373.3818726589283L1101.9280999999999,348.1288597087065L1102.5147,221.46644528706867L1102.588025,359.7261140098175L1103.321275,375.81477884847357L1103.3945999999999,374.75042634395265L1106.3275999999998,373.97033523209393L1106.6209000000001,375.6476214829212L1113.6601,227.48768305778503L1115.27325,313.9007363319397L1116.519775,307.0487473011017L1117.03305,361.08785893519723L1117.692975,260.573609828949L1118.20625,341.81369012594223L1119.012825,351.93190645178163L1121.505875,375.53435102167225L1122.1658,375.5642329993037L1125.4654249999999,318.86872486273444L1128.3251,107.9974434375763L1130.52485,372.4464971795678L1133.237875,373.86239249942207L1138.15065,359.60931120812893L1138.810575,374.9857292128727L1138.8839,332.9405291477839L1140.20375,370.18253914763534L1140.79035,364.09776812791824L1142.1102,374.70118455961347L1142.9901,374.1467844607929L1143.2834,374.69944709663594L1145.556475,164.68276079495746L1146.94965,374.5721478766451L1147.0963,166.84121624628702L1147.24295,355.6762564778328L1147.316275,373.0283015693227L1148.2695,371.7108412310481L1151.34915,267.45390252272284L1152.3757,372.37835793197155L1153.8422,368.94318118443095L1155.528675,191.54234862327576L1157.1418250000002,363.0448784033457L1158.68165,370.77015356222785L1160.808075,373.5143925845623L1162.127925,370.05464739849174L1163.96105,353.5501387317976L1165.13425,375.45924576294294L1167.0407,355.2691310246786L1168.06725,374.71241547477746L1171.073575,223.1980019410451L1171.7335,358.03579540054L1173.63995,374.77416486230993L1175.766375,5.264709154764797L1176.57295,375.5972430085143L1180.6791500000002,329.8287463784218L1181.485725,287.8136489391327L1181.7057,365.34745632112026L1182.512275,311.7097190618515L1182.952225,360.17003842691577L1183.4655,337.31805807352066L1184.7853499999999,298.74257004261017L1186.178525,340.52675124009454L1186.471825,357.9120614230633L1186.9851,258.3108108838399L1187.42505,351.3851536413034L1188.30495,308.72642334302265L1189.111525,338.2582093874613L1189.551475,365.9008449912071L1189.6248,372.62744049603737L1192.1178499999999,351.2770959337553L1192.631125,327.0985074440638L1198.203825,375.6274377747128L1198.790425,372.95960203806555L1199.15705,357.45228681464994L1199.670325,374.9108689688146L1200.03695,278.31681287288666L1200.110275,371.8016658388078L1200.6968749999999,370.85860484341777L1201.6501,375.5180056577859L1202.456675,368.9974253972372L1202.53,375.29910257613903L1202.896625,375.8488077550428L1203.923175,318.32007642587024L1204.509775,371.2964595208565L1204.5831,374.25463819007075L1205.1697,214.44711820284525L1209.42255,351.987958163023L1209.5692,375.85870029078797L1212.428875,345.36311046282447L1212.5022,362.5940531591574L1213.3821,-26.12611675262451L1215.508525,365.6422530710697L1218.8814750000001,372.94949854786194L1220.494625,365.8330039779345L1226.1406499999998,233.27897107601166L1227.1672,360.3206881980101L1227.827125,247.91797852516174L1228.927,285.635574221611L1230.173525,294.38234921296436L1230.760125,329.04604411125183L1232.5932500000001,338.6908791065216L1233.253175,354.6354175209999L1234.793,364.9198688417673L1235.599575,375.4850357001027L1236.5528,367.4373762408892L1236.8461,372.9633480596045L1239.119175,339.54130099217093L1239.4858,367.4976055671772L1239.92575,370.00945176680887L1240.732325,352.08298460642493L1241.025625,326.5505967140198L1242.1254999999999,370.6886655564109L1243.15205,311.50379147132236L1245.2784749999998,372.6705770852665L1247.918175,360.18176002800465L1251.291125,352.44478311141336L1251.36445,254.7985606988271L1251.65775,373.17677498857176L1253.71085,295.3293593327204L1254.59075,346.0984524190426L1255.324,231.8371651172638L1255.6173,365.9531824886799L1256.64385,243.54599173863727L1257.743725,368.18271459142363L1259.4302,362.22189757724607L1260.090125,375.0850713724891L1261.116675,351.10363211234414L1261.7032749999998,375.2986688669771L1269.84235,23.602121035257962L1271.01555,368.23746947944164L1272.0421,255.47827816009521L1273.06865,216.49407720565796L1273.728575,368.577452523013L1275.855,372.65322083979845L1276.58825,374.628697860986L1277.248175,375.7023663945341L1278.4213750000001,374.68546028621495L1278.861325,369.06412483255065L1279.9612,275.7581374645233L1280.40115,375.44082249809674L1280.474475,370.9364340802034L1282.45425,352.10738729437196L1282.6009000000001,373.2037508959571L1283.1875,369.12323650966084L1285.313925,361.85314805308974L1291.25325,357.0284427305063L1292.939725,375.9262380131404L1293.30635,360.90993735690915L1295.5060999999998,360.26331048210466L1297.8525,350.4808908303579L1298.7324,341.5368282894293L1299.46565,308.79434839884436L1301.445425,374.14211805661523L1302.252,344.15532798568404L1303.938475,371.74331142008305L1304.45175,339.45393409331643L1304.6717250000002,374.646633066237L1305.258325,368.39093467593193L1305.62495,308.58489569028217L1306.21155,374.0617008637637L1306.6515,304.453905582428L1307.458075,162.1969502766927L1310.5377250000001,204.4748347600301L1310.684375,319.7487670779228L1314.057325,329.2662589351336L1314.13065,348.18888709942496L1315.8904499999999,368.26500333597266L1317.06365,374.9638146075109L1318.3835000000001,368.92326310028636L1320.8032249999999,366.21552480757236L1322.1964,67.39036218325296L1322.92965,375.8654712422285L1325.4227,372.76500472550595L1327.549125,370.3723264833292L1327.7691,308.52480059862137L1328.4290250000001,254.68775526682535L1329.015625,369.88931177556515L1330.8487499999999,374.5124311223626L1333.415125,281.7282867034276L1333.48845,351.4691354930401L1337.1547,315.84875390926993L1337.374675,295.2484637101491L1337.521325,362.65245339274406L1337.961275,350.16853035489714L1342.800725,306.4303202033043L1345.0738000000001,374.93120113760233L1345.22045,342.4383527139822L1348.5934,365.41702837745345L1348.813375,325.76665248473483L1349.986575,369.06840925167L1350.0599,337.9652370611826L1350.2065499999999,372.2295086557666L1351.159775,331.38507898648584L1355.3393,302.2568419178327L1355.559275,375.79038015473634L1360.4720499999999,275.25854186216986L1364.064975,336.4731316367785L1364.2116250000001,29.460334936777738L1364.944875,372.1484703359505L1367.51125,291.73837995529175L1368.171175,364.25699023902416L1368.8311,302.7619936664899L1373.450575,211.41131456693012L1373.743875,368.22338534891605L1377.996725,372.9577353013059L1379.6832,365.0177574008703L1381.00305,295.0518695116043L1383.2028,375.7823170308644L1383.34945,375.6594619983807L1384.302675,290.4267839193344" style="fill: none;" fill="none"></path></g></g></g></g></g></g><g transform="translate(46, 376)" clip-path="url(#clip_1)"><clipPath id="clip_1"><rect width="1466" height="24"></rect></clipPath><g><g><line x1="0" y1="0" x2="0" y2="5" style="visibility: inherit;" fill="rgb(0, 0, 0)" stroke="rgb(204, 204, 204)" stroke-width="1px"></line><line x1="146.65" y1="0" x2="146.65" y2="5" style="visibility: inherit;" fill="rgb(0, 0, 0)" stroke="rgb(204, 204, 204)" stroke-width="1px"></line><line x1="293.3" y1="0" x2="293.3" y2="5" style="visibility: inherit;" fill="rgb(0, 0, 0)" stroke="rgb(204, 204, 204)" stroke-width="1px"></line><line x1="439.95" y1="0" x2="439.95" y2="5" style="visibility: inherit;" fill="rgb(0, 0, 0)" stroke="rgb(204, 204, 204)" stroke-width="1px"></line><line x1="586.6" y1="0" x2="586.6" y2="5" style="visibility: inherit;" fill="rgb(0, 0, 0)" stroke="rgb(204, 204, 204)" stroke-width="1px"></line><line x1="733.25" y1="0" x2="733.25" y2="5" style="visibility: inherit;" fill="rgb(0, 0, 0)" stroke="rgb(204, 204, 204)" stroke-width="1px"></line><line x1="879.9" y1="0" x2="879.9" y2="5" style="visibility: inherit;" fill="rgb(0, 0, 0)" stroke="rgb(204, 204, 204)" stroke-width="1px"></line><line x1="1026.55" y1="0" x2="1026.55" y2="5" style="visibility: inherit;" fill="rgb(0, 0, 0)" stroke="rgb(204, 204, 204)" stroke-width="1px"></line><line x1="1173.2" y1="0" x2="1173.2" y2="5" style="visibility: inherit;" fill="rgb(0, 0, 0)" stroke="rgb(204, 204, 204)" stroke-width="1px"></line><line x1="1319.8500000000001" y1="0" x2="1319.8500000000001" y2="5" style="visibility: inherit;" fill="rgb(0, 0, 0)" stroke="rgb(204, 204, 204)" stroke-width="1px"></line><line x1="1466.5" y1="0" x2="1466.5" y2="5" style="visibility: inherit;" fill="rgb(0, 0, 0)" stroke="rgb(204, 204, 204)" stroke-width="1px"></line></g><g transform="translate(0, 8)"><text x="0" y="0" dx="0em" dy="0.95em" style="text-anchor: middle; visibility: hidden; font-family: Roboto, sans-serif; font-size: 12px; font-weight: 200;" fill="rgb(255, 255, 255)" stroke="none" stroke-width="1px">-2k</text><text x="146.65" y="0" dx="0em" dy="0.95em" style="text-anchor: middle; visibility: inherit; font-family: Roboto, sans-serif; font-size: 12px; font-weight: 200;" fill="rgb(255, 255, 255)" stroke="none" stroke-width="1px">0</text><text x="293.3" y="0" dx="0em" dy="0.95em" style="text-anchor: middle; visibility: inherit; font-family: Roboto, sans-serif; font-size: 12px; font-weight: 200;" fill="rgb(255, 255, 255)" stroke="none" stroke-width="1px">2k</text><text x="439.95" y="0" dx="0em" dy="0.95em" style="text-anchor: middle; visibility: inherit; font-family: Roboto, sans-serif; font-size: 12px; font-weight: 200;" fill="rgb(255, 255, 255)" stroke="none" stroke-width="1px">4k</text><text x="586.6" y="0" dx="0em" dy="0.95em" style="text-anchor: middle; visibility: inherit; font-family: Roboto, sans-serif; font-size: 12px; font-weight: 200;" fill="rgb(255, 255, 255)" stroke="none" stroke-width="1px">6k</text><text x="733.25" y="0" dx="0em" dy="0.95em" style="text-anchor: middle; visibility: inherit; font-family: Roboto, sans-serif; font-size: 12px; font-weight: 200;" fill="rgb(255, 255, 255)" stroke="none" stroke-width="1px">8k</text><text x="879.9" y="0" dx="0em" dy="0.95em" style="text-anchor: middle; visibility: inherit; font-family: Roboto, sans-serif; font-size: 12px; font-weight: 200;" fill="rgb(255, 255, 255)" stroke="none" stroke-width="1px">10k</text><text x="1026.55" y="0" dx="0em" dy="0.95em" style="text-anchor: middle; visibility: inherit; font-family: Roboto, sans-serif; font-size: 12px; font-weight: 200;" fill="rgb(255, 255, 255)" stroke="none" stroke-width="1px">12k</text><text x="1173.2" y="0" dx="0em" dy="0.95em" style="text-anchor: middle; visibility: inherit; font-family: Roboto, sans-serif; font-size: 12px; font-weight: 200;" fill="rgb(255, 255, 255)" stroke="none" stroke-width="1px">14k</text><text x="1319.8500000000001" y="0" dx="0em" dy="0.95em" style="text-anchor: middle; visibility: inherit; font-family: Roboto, sans-serif; font-size: 12px; font-weight: 200;" fill="rgb(255, 255, 255)" stroke="none" stroke-width="1px">16k</text><text x="1466.5" y="0" dx="0em" dy="0.95em" style="text-anchor: middle; visibility: hidden; font-family: Roboto, sans-serif; font-size: 12px; font-weight: 200;" fill="rgb(255, 255, 255)" stroke="none" stroke-width="1px">18k</text></g><line x1="0" y1="0" x2="1466.5" y2="0" fill="rgb(0, 0, 0)" stroke="rgb(204, 204, 204)" stroke-width="1px"></line></g></g></g></g></svg>